<svg xmlns="http://www.w3.org/2000/svg" width="20" height="30" viewBox="0 0 20 30" fill="none"><path d="M0.625 3.75C0.625 2.75544 1.02009 1.80161 1.72335 1.09835C2.42661 0.395088 3.38044 0 4.375 0L15.625 0C16.6196 0 17.5734 0.395088 18.2766 1.09835C18.9799 1.80161 19.375 2.75544 19.375 3.75V26.25C19.375 27.2446 18.9799 28.1984 18.2766 28.9016C17.5734 29.6049 16.6196 30 15.625 30H4.375C3.38044 30 2.42661 29.6049 1.72335 28.9016C1.02009 28.1984 0.625 27.2446 0.625 26.25V3.75ZM11.875 24.375C11.875 23.8777 11.6775 23.4008 11.3258 23.0492C10.9742 22.6975 10.4973 22.5 10 22.5C9.50272 22.5 9.02581 22.6975 8.67418 23.0492C8.32254 23.4008 8.125 23.8777 8.125 24.375C8.125 24.8723 8.32254 25.3492 8.67418 25.7008C9.02581 26.0525 9.50272 26.25 10 26.25C10.4973 26.25 10.9742 26.0525 11.3258 25.7008C11.6775 25.3492 11.875 24.8723 11.875 24.375Z" fill="#00DFC4"></path></svg>